Coordinates
version=1
nRows=8
nColumns=36
inDegrees=yes

Units are S.I. units (second, meters, Newtons, ...)
If the header above contains a line with 'inDegrees', this indicates whether rotational values are in degrees (yes) or radians (no).

endheader
time	pelvis_tilt	pelvis_list	pelvis_rotation	pelvis_tx	pelvis_ty	pelvis_tz	hip_flexion_r	hip_adduction_r	hip_rotation_r	knee_angle_r	knee_angle_r_beta	ankle_angle_r	subtalar_angle_r	mtp_angle_r	hip_flexion_l	hip_adduction_l	hip_rotation_l	knee_angle_l	knee_angle_l_beta	ankle_angle_l	subtalar_angle_l	mtp_angle_l	lumbar_extension	lumbar_bending	lumbar_rotation	arm_flex_r	arm_add_r	arm_rot_r	elbow_flex_r	pro_sup_r	arm_flex_l	arm_add_l	arm_rot_l	elbow_flex_l	pro_sup_l
      6.70000000	     -2.47404094	     -3.65899022	     -7.83712412	      0.24935897	      0.77661601	     -0.01148605	     37.29018758	     12.76596061	      0.72479981	     72.55204549	      1.26627207	     36.16362616	    -15.93692848	     -7.49999987	     62.67386723	     -8.02052966	     11.95594004	     34.74939160	      0.60649130	      0.12877235	     -7.62306625	     -7.49999987	    -12.91625093	      8.60908666	     -0.30109231	     37.65082770	     -8.29216026	     58.79423459	    124.61977738	     85.38451659	     30.11891509	     -1.59431415	     61.33943890	    130.75918033	     96.01363090
      6.71666670	     -2.39430920	     -4.23977486	     -8.86626665	      0.25077358	      0.77315599	     -0.01071034	     36.76503086	     13.48943954	      0.94659422	     71.92378472	      1.25530685	     36.44089076	    -14.71987413	     -7.49999987	     62.21992300	     -9.06367965	     12.27372824	     33.05220067	      0.57686973	     -0.85167516	     -6.71506697	     -7.49999987	    -12.90842643	      9.31138646	     -0.08043591	     37.14223619	     -8.26665138	     58.21032443	    124.72432165	     85.58447789	     29.71382056	     -1.87510833	     60.37911718	    131.14848510	     96.26361198
      6.73333330	     -2.42099322	     -4.67583836	     -9.15063809	      0.25079787	      0.77718175	     -0.01078201	     36.38990983	     13.79073374	      0.65121433	     71.37377254	      1.24570733	     36.27629646	    -14.22461130	     -7.49999987	     61.60925004	     -9.40064330	     12.75629386	     31.24421621	      0.54531445	     -1.44907266	     -5.76707166	     -7.49999987	    -12.59311313	      9.93824921	     -0.28830624	     36.98655296	     -8.02680404	     57.59040287	    124.84208442	     83.81552744	     29.72648371	     -1.90861802	     60.06943950	    131.34248540	     94.46170851
      6.75000000	     -2.28315599	     -5.09911589	     -9.10443437	      0.25850390	      0.77822108	     -0.00725247	     35.85210813	     14.05327129	      0.22731625	     71.16118492	      1.24199698	     36.32004484	    -14.43744370	     -7.49999987	     60.72601624	     -9.60280889	     13.27360519	     30.25383060	      0.52802896	     -2.33430222	     -5.61704219	     -7.49999987	    -12.31037418	     10.20484961	     -0.79855145	     35.62605942	     -8.03825175	     56.85773301	    124.93901290	     84.27886225	     29.37398048	     -1.96429912	     58.81774244	    130.96056087	     95.14216404
      6.76666670	     -2.17477995	     -5.05486624	     -9.11077095	      0.25870849	      0.77940223	     -0.00706195	     35.78177422	     13.85329359	     -0.05809716	     71.37054145	      1.24565094	     36.45664396	    -14.41685726	     -7.49999987	     60.47731790	     -9.67995632	     13.16387295	     30.26096404	      0.52815346	     -3.12190825	     -5.43859342	     -7.49999987	    -11.65800726	     10.06031035	     -1.13225662	     34.44231173	     -7.99208947	     56.08829062	    125.03960630	     83.83534127	     28.85989000	     -2.08757661	     57.64034200	    131.08964907	     94.72677515
      6.78333330	     -2.11512191	     -4.85328881	     -9.18091231	      0.25856026	      0.78193368	     -0.00675757	     35.69425075	     13.38358843	     -0.36360940	     71.51507485	      1.24817352	     36.74967630	    -14.03517569	     -7.49999987	     60.19908219	     -9.61809970	     12.98049270	     30.27002620	      0.52831162	     -3.58392967	     -5.43640517	     -7.49999987	    -10.69650304	      9.95654173	     -1.71146235	     34.48224884	     -7.28755237	     56.28515654	    124.31985034	     86.45485819	     28.49594079	     -2.12192737	     56.21930287	    131.02160981	     97.58909722
      6.80000000	     -2.04487483	     -4.63103419	     -9.47618632	      0.25866470	      0.78607573	     -0.00649273	     35.34954792	     13.02611229	     -0.31961779	     71.32102123	      1.24478665	     36.63776769	    -14.04122228	     -7.49999987	     59.79216667	     -9.68472913	     12.57404342	     30.08305110	      0.52504829	     -4.03201334	     -5.07456389	     -7.49999987	    -10.16060828	      9.66598143	     -1.63161803	     33.83620794	     -7.50163433	     56.19079621	    123.53971665	     85.18593748	     28.25775957	     -2.66969280	     55.66824681	    130.61861391	     96.41583296
      6.81666670	     -1.47590465	     -4.24497328	     -8.86748598	      0.25879316	      0.79822379	     -0.00629599	     33.73132052	     12.44027742	     -0.14979044	     69.96739872	      1.22116148	     35.83692679	    -15.43891145	     -7.49999987	     58.40401065	     -9.02555437	     11.91020491	     30.50402577	      0.53239568	     -4.16086051	     -6.08053667	     -7.49999987	    -10.43632026	      9.27103824	     -1.99956351	     34.64012224	     -7.15785640	     56.48687904	    122.60868547	     86.90109822	     28.33070359	     -3.06596504	     56.57832279	    130.59639069	     97.45151213
